<svg version="1.1" id="Layer_1" xmlns="http://www.w3.org/2000/svg" xmlns:xlink="http://www.w3.org/1999/xlink" x="0px" y="0px"
	 width="100%" viewBox="0 0 1024 1024" enable-background="new 0 0 1024 1024" xml:space="preserve">
<path fill="#000000" opacity="1.000000" stroke="none" 
	d="
M454.434967,515.384033 
	C449.734467,520.649597 444.953857,525.291504 438.833344,528.237183 
	C425.313843,534.743835 414.354004,528.065979 413.688690,512.952515 
	C413.362061,505.533142 415.045197,498.422791 417.135559,491.384705 
	C417.890381,488.843231 418.677765,486.311462 419.596069,483.296570 
	C416.759705,483.181122 415.040680,484.846680 413.168152,485.949188 
	C396.807373,495.582031 380.592499,505.546173 361.712799,509.678528 
	C356.041779,510.919800 350.372559,512.032837 344.462677,510.452209 
	C335.759033,508.124420 331.288025,501.638702 332.180389,492.598633 
	C333.164673,482.627106 337.261841,473.713013 341.051392,464.668854 
	C342.273346,461.752686 343.396729,458.792908 344.695618,455.911865 
	C346.505005,451.898499 344.927063,450.545685 340.910919,450.263611 
	C337.962372,450.056549 334.858795,449.594513 332.190460,448.416656 
	C327.824585,446.489441 325.657013,448.122559 323.379883,451.777618 
	C307.964996,476.520752 292.325470,501.123932 274.868134,524.505005 
	C268.368256,533.210510 261.271362,541.411865 252.326965,547.715698 
	C235.568253,559.526917 220.950592,553.113464 217.709091,532.798889 
	C214.531693,512.886108 215.973877,492.978424 217.385559,473.056763 
	C217.710571,468.470306 218.031494,463.883606 218.389877,458.791412 
	C215.799713,459.935364 214.341934,461.745239 212.732758,463.323090 
	C199.535812,476.263092 187.082321,490.003784 172.063873,500.977905 
	C166.659195,504.927124 160.956665,508.338867 154.597549,510.515686 
	C138.153320,516.144775 125.818977,507.989105 124.756882,490.688660 
	C124.472321,486.053528 124.413452,481.378876 125.407372,475.609589 
	C118.433052,486.292236 112.156548,496.155548 104.455864,504.988678 
	C101.039131,508.907776 97.282829,512.438232 93.097931,515.478271 
	C80.816788,524.399719 74.624718,524.537964 61.322323,515.984619 
	C58.950970,524.784729 56.594414,533.371521 54.329319,541.982422 
	C52.258175,549.856018 50.357822,557.775024 48.248138,565.638000 
	C46.459320,572.305176 42.370712,574.858459 36.502380,573.215271 
	C31.901587,571.927002 29.898756,567.612549 31.567112,561.386047 
	C41.801559,523.189209 50.434479,484.571686 61.702793,446.648010 
	C62.506386,443.943542 63.423225,441.237000 64.635674,438.697723 
	C66.642174,434.495392 70.633736,432.797150 74.526733,434.172180 
	C78.685738,435.641144 80.764114,438.991821 79.444847,443.697205 
	C76.351898,454.728729 72.797775,465.630341 70.753662,476.936646 
	C69.363190,484.627502 67.875069,492.279419 68.291512,500.186462 
	C68.815971,510.144318 74.873970,513.676758 83.411133,508.610413 
	C91.927826,503.556244 97.850586,495.884827 103.427078,487.946198 
	C113.488380,473.623108 122.172058,458.425385 131.487946,443.628693 
	C132.899246,441.387115 134.465210,439.161713 136.338470,437.312622 
	C138.703125,434.978455 141.609268,433.789368 144.984665,435.443695 
	C148.535812,437.184082 148.830307,440.419739 148.175232,443.590820 
	C147.033051,449.119873 145.453110,454.559448 144.024582,460.028137 
	C141.586823,469.360352 139.964111,478.852081 138.484497,488.369507 
	C138.017395,491.374115 138.448669,494.332123 139.350189,497.237061 
	C141.017426,502.609344 144.595016,504.684235 150.097519,503.126526 
	C158.647156,500.706207 165.533997,495.358398 172.250214,489.888062 
	C188.559265,476.604309 203.113663,461.451874 218.023621,446.671722 
	C221.233841,443.489410 220.830933,439.587677 221.359894,436.017242 
	C224.816635,412.684814 229.257736,389.543243 234.112137,366.472595 
	C234.244278,365.844543 234.303589,365.201202 234.366241,364.773773 
	C233.422806,363.036926 231.967041,363.349304 230.688705,363.325073 
	C212.213623,362.975372 193.755020,361.502380 175.253616,363.023590 
	C168.135818,363.608795 160.936981,363.727203 153.834290,362.370117 
	C152.208267,362.059418 150.569519,361.774200 148.979202,361.326141 
	C145.229523,360.269684 143.362045,357.605774 143.831268,353.855530 
	C144.297836,350.126709 146.798508,347.980438 150.608582,347.704651 
	C157.313538,347.219330 163.837234,348.800262 170.408432,349.684357 
	C182.183136,351.268585 194.017944,350.412201 205.818237,350.855011 
	C214.803467,351.192230 223.798874,351.279938 232.780182,351.688812 
	C236.252350,351.846863 237.779205,350.452972 238.727432,347.177216 
	C243.534790,330.569702 247.746735,313.751038 255.108932,297.995911 
	C256.516724,294.983246 258.061676,292.025238 259.706085,289.134552 
	C262.803589,283.689453 267.538025,282.131287 272.218536,284.880371 
	C276.587646,287.446564 277.515503,292.199402 274.476624,297.533813 
	C265.320465,313.606598 260.728821,331.368469 255.373245,348.849091 
	C255.186615,349.458282 255.257843,350.146454 255.212372,350.751801 
	C256.714569,352.214447 258.484375,351.694031 260.037140,351.597290 
	C278.514893,350.446289 296.992126,351.673248 315.466492,351.514862 
	C337.624390,351.324921 359.780182,350.894043 381.936829,350.562073 
	C384.763153,350.519714 387.616364,350.275940 390.301147,351.448517 
	C393.611328,352.894196 394.007355,355.228149 391.147064,357.418152 
	C388.172363,359.695801 384.570831,360.835938 380.939484,361.145813 
	C374.980835,361.654236 369.051697,362.437958 363.024750,362.417145 
	C329.360291,362.300812 295.695160,362.367096 262.030273,362.387482 
	C251.090988,362.394104 251.273514,362.468811 248.296371,372.929504 
	C240.143768,401.574921 234.535965,430.750336 230.579590,460.216339 
	C227.832870,480.673126 226.592865,501.302826 227.454773,521.970032 
	C227.646774,526.574036 228.582306,531.240112 229.846588,535.686829 
	C232.363464,544.539185 237.264404,546.316284 245.157547,541.607727 
	C252.442093,537.262268 258.103363,531.075439 263.220947,524.516052 
	C282.821960,499.392639 299.654144,472.369049 316.854492,445.602600 
	C317.928162,443.931763 318.498260,442.600830 316.879730,440.752441 
	C312.306641,435.529846 311.930054,429.441101 313.483063,422.915222 
	C315.390808,414.898804 319.469208,408.114655 324.981628,402.190399 
	C330.298553,396.476257 336.862518,394.951630 342.019379,397.796051 
	C347.034210,400.562164 349.584991,408.095367 347.848938,415.058746 
	C346.288757,421.316711 343.113251,426.744812 339.215332,431.800476 
	C337.818054,433.612762 336.148956,435.261475 335.418335,437.394653 
	C337.043457,439.764618 339.287323,439.539917 341.421509,439.711945 
	C345.403198,440.032898 349.419220,440.183807 353.348328,440.840210 
	C359.098541,441.800873 361.741516,445.959442 359.680695,451.435516 
	C357.047028,458.433807 353.690613,465.156616 350.799438,472.062531 
	C348.043823,478.644531 344.737274,485.103424 344.236115,492.379059 
	C343.726898,499.771332 345.975708,501.934906 353.477814,501.888275 
	C362.415497,501.832703 370.384155,498.266998 378.171204,494.559021 
	C393.694214,487.167297 408.324188,478.205139 422.308655,468.189758 
	C424.384674,466.702972 425.179108,465.282654 424.874817,462.454712 
	C423.327637,448.075714 434.849976,435.437927 449.828217,434.670319 
	C464.193329,433.934113 475.243134,444.914978 475.348877,460.031677 
	C475.395569,466.705109 475.430023,466.881134 481.731689,465.648895 
	C501.883759,461.708496 521.406067,455.744263 540.039368,447.024475 
	C540.944336,446.600983 541.832703,446.142120 542.738220,445.719940 
	C545.908508,444.241882 549.245117,442.180267 552.528809,444.858765 
	C555.748535,447.485016 554.716797,451.478912 553.956970,454.691681 
	C552.084839,462.607056 549.583008,470.373199 547.350098,478.203888 
	C547.035889,479.305817 546.810425,480.433075 546.486572,481.788330 
	C548.818970,482.687927 550.360596,481.281555 552.003601,480.368805 
	C562.340210,474.626495 572.652161,468.839264 583.023254,463.159851 
	C585.054077,462.047760 587.263062,461.208252 589.466919,460.474121 
	C598.620361,457.425049 604.273682,461.419647 604.320251,470.990692 
	C604.348633,476.822021 604.253784,482.655609 604.110474,488.485596 
	C604.002441,492.877991 605.878052,495.033020 610.410217,494.685822 
	C621.412964,493.843018 631.445496,489.674500 641.223633,485.115692 
	C660.851501,475.964722 680.192993,466.219147 698.513367,454.583313 
	C699.904541,453.699738 701.429077,452.929871 702.995300,452.436432 
	C707.673767,450.962616 710.898926,453.996765 709.840332,458.834778 
	C708.339417,465.694183 704.238220,471.660034 702.940613,478.583832 
	C702.205078,482.508545 699.258423,486.820679 703.116516,490.308594 
	C706.678467,493.528778 710.792297,490.894379 714.439575,489.736389 
	C729.136719,485.070129 742.378479,477.231323 755.914490,470.092285 
	C774.776855,460.144104 793.357056,449.687653 811.434937,438.343445 
	C819.826050,433.077911 828.639038,428.744537 839.123535,430.627594 
	C840.645020,430.900818 842.056946,431.301483 843.240356,432.263184 
	C844.759705,433.497833 845.637512,435.088287 845.093567,437.095825 
	C844.544861,439.121460 842.827026,439.331635 841.106140,439.327637 
	C823.927979,439.287628 812.904053,449.517975 803.326965,462.062469 
	C802.035522,463.754059 801.124084,465.808228 800.360901,467.817627 
	C797.777771,474.619324 796.606445,481.589783 801.672791,487.693848 
	C806.809082,493.882263 814.044312,494.258057 821.397217,493.289215 
	C836.997437,491.233704 851.185425,485.125824 864.854126,477.712494 
	C881.137573,468.881104 896.432068,458.479584 911.576721,447.847229 
	C913.699219,446.357178 914.609009,444.744507 914.715637,442.116425 
	C915.385681,425.599701 932.744263,407.430878 949.341553,405.762970 
	C953.357483,405.359436 956.837769,406.599152 958.049988,410.775604 
	C959.315369,415.135437 956.273621,417.020142 952.782166,418.487091 
	C947.716797,420.615417 942.724060,422.870758 938.092407,425.915497 
	C931.213440,430.437622 928.612488,436.801544 929.411194,444.761627 
	C930.063965,451.267059 937.575500,472.024414 941.426331,478.040436 
	C950.328003,472.249847 959.130432,466.296783 968.159180,460.709381 
	C978.925720,454.046509 989.886169,447.694916 1001.635864,442.854736 
	C1003.940674,441.905243 1006.280945,440.993408 1008.905457,442.469971 
	C1008.936035,446.086975 1005.919983,447.126587 1003.670654,448.481415 
	C991.832947,455.611725 979.544495,462.000916 968.293884,470.092865 
	C961.533936,474.954926 954.915100,480.028046 947.980774,484.626099 
	C944.849915,486.702087 944.491455,488.887665 945.445068,492.136017 
	C948.833984,503.680786 951.259338,515.464783 950.241150,527.525269 
	C948.418823,549.110657 938.564514,565.737732 918.787292,575.733704 
	C912.897156,578.710815 906.514221,579.030945 900.220642,578.133972 
	C888.967834,576.530090 884.129517,564.491394 886.422119,554.155090 
	C890.703918,534.850952 901.262634,518.661621 914.103027,503.921112 
	C918.038513,499.403198 922.303040,495.170715 926.447144,490.836487 
	C927.614441,489.615631 928.785706,488.603638 928.011353,486.548920 
	C924.034058,475.995789 920.165222,465.401825 916.162476,454.562195 
	C912.286499,455.894684 909.605103,458.460510 906.659668,460.498566 
	C886.900208,474.171417 866.734619,487.130676 844.154175,495.760529 
	C833.547729,499.814117 822.680237,502.606812 811.115051,502.432892 
	C790.944214,502.129578 780.314575,487.957123 786.091919,468.535797 
	C786.838623,466.025848 787.828247,463.588196 788.989990,460.315125 
	C775.131714,468.713562 761.971069,476.787506 748.287720,483.932251 
	C736.194214,490.246887 724.286987,496.993866 710.994385,500.652557 
	C707.212097,501.693634 703.347412,501.795197 699.618347,500.961243 
	C691.412476,499.126160 687.718689,491.327271 689.992432,480.859589 
	C690.899536,476.683594 692.215698,472.596405 693.473328,468.002625 
	C690.409485,468.522339 688.381836,470.263092 686.156250,471.526917 
	C665.140991,483.460327 643.963135,495.046387 620.612549,501.935394 
	C615.823669,503.348267 610.969788,504.547516 605.906311,504.299469 
	C597.595520,503.892365 592.756836,498.911224 592.681946,490.546783 
	C592.635681,485.382385 592.823486,480.216309 592.844238,475.050781 
	C592.863770,470.187195 591.449219,469.061432 587.185486,471.370422 
	C576.644226,477.079041 566.296570,483.144440 555.855286,489.038483 
	C551.512329,491.490051 547.283508,494.181305 542.385071,495.492188 
	C535.012512,497.465149 530.397156,493.298279 532.080688,485.919312 
	C533.927979,477.823212 536.063416,469.792999 538.055786,461.729767 
	C538.366272,460.473541 538.583435,459.194244 539.009338,457.118713 
	C535.981750,458.317474 533.577515,459.253265 531.185425,460.219147 
	C514.156494,467.094879 496.544159,471.957458 478.494537,475.203766 
	C475.225464,475.791748 473.493286,477.230347 472.682587,480.359955 
	C469.328766,493.306732 462.977356,504.721832 454.434967,515.384033 
M928.640442,503.236145 
	C916.421814,515.647095 905.773254,529.177246 898.714233,545.261108 
	C896.696228,549.859070 895.096802,554.571838 895.381531,559.690857 
	C895.954041,569.984985 902.082703,574.065063 911.589905,570.348877 
	C917.762268,567.936218 922.833801,563.963196 926.823547,558.640869 
	C935.488953,547.081299 937.812195,533.824646 936.388733,519.901550 
	C935.732422,513.481689 935.540161,506.736816 932.321411,500.901001 
	C930.590576,500.908966 929.993164,502.043274 928.640442,503.236145 
M425.214050,506.436798 
	C425.146881,506.931519 425.115540,507.434265 425.007019,507.919708 
	C423.963348,512.587830 424.037415,517.372559 428.496674,519.937683 
	C432.689392,522.349548 436.399139,519.313599 439.783722,516.815308 
	C440.184723,516.519348 440.562592,516.189270 440.932556,515.854370 
	C451.740265,506.071289 458.248474,493.684479 462.585449,479.997955 
	C462.815125,479.273163 463.087036,478.358063 462.146027,477.640686 
	C461.759186,477.576233 461.264404,477.382416 460.795532,477.432281 
	C452.955200,478.266235 445.209259,478.411407 437.842468,474.879150 
	C435.605133,473.806396 434.863495,475.671448 434.204773,477.157410 
	C430.156067,486.290283 426.522797,495.561768 425.214050,506.436798 
M465.707275,462.172394 
	C465.682709,460.681458 465.797821,459.172577 465.609009,457.702728 
	C464.850525,451.798859 461.817047,447.455780 456.184357,445.380096 
	C450.766907,443.383789 445.405487,443.500885 440.768799,447.493652 
	C435.870392,451.711823 436.548920,455.658081 442.462860,457.746338 
	C444.035339,458.301605 445.200684,459.242859 445.176147,460.888275 
	C445.127472,464.150879 447.182159,465.174713 449.819122,465.646362 
	C453.393738,466.285645 456.970001,466.955566 460.572540,467.386993 
	C463.696625,467.761169 465.765137,466.552612 465.707275,462.172394 
M332.222198,408.668060 
	C325.231415,416.304871 323.376740,426.500183 328.289276,432.039429 
	C332.893982,425.814880 337.425507,419.696808 337.652161,411.589325 
	C337.746277,408.222870 336.487518,406.305756 332.222198,408.668060 
z"/>
<path fill="#000000" opacity="1.000000" stroke="none" 
	d="
M428.339417,650.761169 
	C427.718994,661.902344 421.169312,668.547913 410.134064,669.178406 
	C403.990417,669.529358 397.811249,669.247253 391.648193,669.273132 
	C388.092224,669.288086 386.590485,667.525696 386.600189,664.003296 
	C386.648468,646.512817 386.664429,629.021912 386.570129,611.531799 
	C386.550201,607.839111 388.109467,606.520142 391.685120,606.603455 
	C398.178131,606.754944 404.678894,606.553223 411.173370,606.668884 
	C420.952820,606.843018 428.130615,613.969177 428.305389,623.807007 
	C428.462219,632.632935 428.339355,641.463867 428.339417,650.761169 
M394.290161,648.485413 
	C394.287506,651.643250 394.340546,654.802429 394.264069,657.958496 
	C394.205414,660.380615 395.049805,661.722717 397.694885,661.667542 
	C402.014099,661.577332 406.356567,661.874573 410.651733,661.534424 
	C416.447418,661.075500 420.428589,657.170593 420.575287,651.573120 
	C420.819031,642.272400 420.798523,632.957520 420.590881,623.655212 
	C420.473694,618.405518 417.161896,614.935181 411.928009,614.386230 
	C407.809875,613.954346 403.626648,614.186584 399.483795,613.934937 
	C395.705475,613.705505 394.127686,615.059998 394.223969,619.072144 
	C394.451202,628.540161 394.294159,638.017456 394.290161,648.485413 
z"/>
<path fill="#000000" opacity="1.000000" stroke="none" 
	d="
M506.870728,618.404114 
	C511.459229,604.096252 532.639709,602.642273 541.719299,610.453796 
	C544.844910,613.142883 546.954834,616.475159 547.299255,620.694519 
	C547.481506,622.925781 547.439270,625.266418 544.670288,625.897644 
	C542.000122,626.506348 540.796570,624.601990 539.886597,622.504150 
	C536.770996,615.321228 533.670593,613.231934 526.298096,613.358337 
	C518.443848,613.492981 513.720825,617.735596 513.442017,625.597168 
	C513.153076,633.745117 513.202576,641.916809 513.449707,650.067627 
	C513.600708,655.046326 515.711792,659.224426 520.886108,660.777893 
	C526.501038,662.463684 532.118530,662.579468 536.985168,658.639099 
	C539.468323,656.628479 540.789734,648.707703 539.511841,645.924561 
	C538.801758,644.378113 537.491760,644.400269 536.159973,644.361633 
	C534.330261,644.308411 532.492371,644.372070 530.671387,644.222534 
	C528.747986,644.064636 527.666138,642.872131 527.532776,640.961121 
	C527.397156,639.019409 528.427612,637.589661 530.245483,637.319275 
	C535.027039,636.608215 539.859497,636.494385 544.634033,637.395386 
	C546.480469,637.743774 547.233826,639.223389 547.426086,641.077698 
	C547.961487,646.240417 547.825500,651.433838 546.841919,656.464783 
	C545.837097,661.604126 542.707458,665.486694 537.612122,667.451904 
	C530.108765,670.346008 522.621704,670.210022 515.302734,666.959351 
	C509.599274,664.426208 506.379303,659.402832 506.077057,653.613892 
	C505.472260,642.028687 504.597687,630.359863 506.870728,618.404114 
z"/>
<path fill="#000000" opacity="1.000000" stroke="none" 
	d="
M872.417053,667.095337 
	C871.068481,656.443237 871.875305,646.124329 871.693481,635.820923 
	C871.558350,628.164307 871.852051,620.497498 871.609436,612.846252 
	C871.456055,608.009827 873.422607,606.269958 878.128174,606.569092 
	C882.606323,606.853699 887.115540,606.627563 891.610779,606.667725 
	C896.185059,606.708557 899.880371,608.780518 903.239502,611.699280 
	C909.582703,617.210938 911.120728,639.375732 901.368896,645.296631 
	C897.730896,647.505432 898.290222,649.690857 900.090210,652.641968 
	C902.080078,655.904602 903.862976,659.302429 905.578064,662.720520 
	C906.703857,664.964172 907.026489,667.465942 904.348572,668.772461 
	C901.909912,669.962280 900.250549,668.240356 899.105103,666.237732 
	C896.543945,661.760376 894.091614,657.220947 891.534058,652.741455 
	C889.811401,649.724365 883.519775,648.036743 880.668213,649.704956 
	C879.231689,650.545410 879.380859,651.914490 879.368347,653.221252 
	C879.333313,656.884033 879.447510,660.551086 879.310547,664.209290 
	C879.121521,669.256775 877.154846,670.176086 872.417053,667.095337 
M890.096375,614.045044 
	C888.437622,614.030334 886.759888,614.170898 885.123657,613.971313 
	C880.465820,613.403076 879.001709,615.437683 879.266846,619.963806 
	C879.605896,625.751892 879.329834,631.574890 879.368896,637.382507 
	C879.378601,638.826477 879.061340,640.409363 880.577026,641.449158 
	C885.395203,644.754517 897.646667,640.722046 899.531433,635.127808 
	C900.879150,631.127502 901.066284,627.001160 900.277039,622.854858 
	C899.296936,617.705627 896.448364,614.505981 890.096375,614.045044 
z"/>
<path fill="#000000" opacity="1.000000" stroke="none" 
	d="
M205.358154,628.634033 
	C205.165588,631.862244 206.500275,633.003723 209.227615,632.966431 
	C214.725662,632.891235 220.226288,632.867126 225.723892,632.950745 
	C228.829178,632.997864 229.730057,631.460266 229.677109,628.601685 
	C229.569138,622.771545 229.698364,616.937378 229.649948,611.105469 
	C229.627502,608.404236 230.519714,606.302551 233.453110,606.318665 
	C236.352585,606.334595 237.324631,608.454102 237.323242,611.124634 
	C237.314056,628.788330 237.312515,646.451965 237.317917,664.115662 
	C237.318726,666.792542 236.246689,668.916626 233.448349,668.977844 
	C230.525528,669.041870 229.645035,666.836182 229.654587,664.172974 
	C229.677872,657.674194 229.608353,651.174927 229.659958,644.676514 
	C229.680389,642.102173 228.987915,640.546204 225.986618,640.667419 
	C220.662827,640.882507 215.329895,640.995972 210.002487,640.950928 
	C206.671921,640.922729 205.178711,642.087646 205.297073,645.637390 
	C205.502426,651.796021 205.321854,657.966797 205.349411,664.132263 
	C205.360977,666.719238 204.798157,669.067627 201.722458,669.002563 
	C198.929642,668.943481 197.719406,666.878357 197.715958,664.215210 
	C197.693085,646.551636 197.696564,628.888123 197.699158,611.224548 
	C197.699554,608.612427 198.538376,606.419312 201.529083,606.407104 
	C204.519348,606.394958 205.354614,608.515503 205.341904,611.182495 
	C205.314926,616.848083 205.346390,622.513916 205.358154,628.634033 
z"/>
<path fill="#000000" opacity="1.000000" stroke="none" 
	d="
M763.022583,630.928772 
	C757.086365,640.954407 751.342834,650.670105 745.700378,660.215027 
	C747.010925,662.289490 748.666565,661.604919 750.037598,661.624268 
	C756.357422,661.713318 762.679138,661.664612 768.999878,661.705566 
	C771.489380,661.721680 773.213013,662.750305 773.229248,665.506531 
	C773.243774,667.986084 771.731812,669.182312 769.439636,669.197876 
	C759.626709,669.264343 749.812134,669.317322 740.000427,669.193115 
	C736.673401,669.151001 735.395752,666.962524 735.704041,663.776978 
	C735.987122,660.851807 737.604309,658.484131 739.024780,656.057312 
	C747.078613,642.297485 755.168396,628.558777 763.718323,614.009033 
	C757.382324,614.009033 751.838013,614.029236 746.294006,613.998352 
	C744.301453,613.987244 742.293518,613.984131 740.321594,613.741699 
	C737.929382,613.447632 736.119995,612.156006 736.305359,609.540466 
	C736.489563,606.940857 738.597107,606.637634 740.736633,606.640747 
	C750.218018,606.654602 759.701294,606.542603 769.180054,606.702087 
	C773.755859,606.779053 775.219360,609.239807 773.077881,613.279602 
	C769.964905,619.151917 766.519165,624.847778 763.022583,630.928772 
z"/>
<path fill="#000000" opacity="1.000000" stroke="none" 
	d="
M807.657776,638.999878 
	C807.663330,629.670959 807.745178,620.841125 807.638489,612.013550 
	C807.593384,608.273315 808.957703,606.505249 812.899231,606.588623 
	C820.058777,606.740112 827.224243,606.607788 834.387207,606.609741 
	C836.673401,606.610352 838.957458,606.881287 839.107666,609.809326 
	C839.264282,612.864502 837.028076,613.852173 834.525818,613.930847 
	C829.533691,614.087830 824.532715,614.049622 819.537048,613.977112 
	C816.649414,613.935242 815.457458,615.043091 815.293335,618.081787 
	C814.563904,631.593872 814.481018,631.584839 827.749573,632.058716 
	C828.911133,632.100159 830.081970,632.177734 831.225159,632.374084 
	C833.387634,632.745544 835.096924,633.823975 835.075989,636.225159 
	C835.054016,638.727966 833.118225,639.663208 831.013367,639.783752 
	C827.360229,639.993042 823.687866,640.011963 820.028320,639.920166 
	C816.700134,639.836670 815.133179,641.058838 815.304626,644.603333 
	C815.513672,648.924438 815.463623,653.266907 815.317871,657.593140 
	C815.215881,660.619812 816.443054,661.773743 819.441223,661.690491 
	C824.268250,661.556458 829.101990,661.673035 833.932922,661.675598 
	C836.649475,661.677063 839.187744,662.179382 839.171753,665.553894 
	C839.155334,669.012390 836.470337,669.279602 833.832520,669.283752 
	C827.002625,669.294312 820.172668,669.254028 813.342957,669.290405 
	C809.398193,669.311462 807.589050,667.487366 807.637207,663.487610 
	C807.733459,655.492798 807.660767,647.495972 807.657776,638.999878 
z"/>
<path fill="#000000" opacity="1.000000" stroke="none" 
	d="
M296.207458,632.289795 
	C299.050720,632.677734 300.868286,633.758179 300.573395,636.490051 
	C300.276062,639.244690 298.026520,639.782959 295.765503,639.848694 
	C292.271545,639.950378 288.764954,640.014465 285.277832,639.829102 
	C282.578125,639.685669 281.232269,640.428650 281.319000,643.389526 
	C281.460388,648.215210 281.435120,653.049805 281.326569,657.877197 
	C281.263306,660.692749 282.496826,661.744385 285.224487,661.685181 
	C289.718994,661.587524 294.217438,661.686707 298.714020,661.661316 
	C301.508118,661.645569 304.534973,661.731445 304.647034,665.351501 
	C304.759155,668.973450 301.834167,669.316650 298.977173,669.306030 
	C292.481995,669.281860 285.985931,669.227539 279.491730,669.308289 
	C275.590912,669.356812 273.629517,667.772156 273.643494,663.693665 
	C273.702789,646.373108 273.694183,629.052185 273.645599,611.731567 
	C273.635773,608.217163 275.024689,606.549438 278.699615,606.616699 
	C285.858643,606.747803 293.021759,606.664062 300.183167,606.655579 
	C302.501617,606.652832 304.793304,606.978394 304.935730,609.833801 
	C305.084015,612.807007 302.929840,613.867737 300.333771,613.901245 
	C295.172607,613.967834 290.009186,613.913330 284.847412,613.849487 
	C283.026306,613.826965 281.402954,613.958679 281.391479,616.324890 
	C281.366669,621.443481 281.383850,626.562256 281.383850,632.226257 
	C286.563049,632.226257 291.176819,632.226257 296.207458,632.289795 
z"/>
<path fill="#000000" opacity="1.000000" stroke="none" 
	d="
M646.348267,623.083862 
	C646.347107,636.718384 646.343079,649.864868 646.346375,663.011414 
	C646.347107,665.761597 646.359680,668.919800 642.738708,668.988708 
	C638.859436,669.062622 638.680359,665.814331 638.679382,662.855591 
	C638.674622,648.377747 638.541443,633.898071 638.751831,619.423340 
	C638.812805,615.224304 637.322083,613.737854 633.272034,613.967712 
	C630.466980,614.126953 627.619873,613.920288 624.817444,613.629089 
	C622.716248,613.410706 621.648376,612.051514 621.739624,609.830078 
	C621.837585,607.445190 623.269043,606.692566 625.360596,606.689209 
	C636.676147,606.670837 647.991760,606.660217 659.307312,606.656494 
	C661.582214,606.655762 663.183655,607.425354 663.257202,610.057068 
	C663.329895,612.660156 661.694885,613.633789 659.529785,613.831543 
	C657.219421,614.042603 654.861511,614.140259 652.557495,613.928101 
	C647.892883,613.498474 645.584473,615.168884 646.330627,620.102234 
	C646.453674,620.915710 646.348022,621.763733 646.348267,623.083862 
z"/>
<path fill="#000000" opacity="1.000000" stroke="none" 
	d="
M165.280151,610.814575 
	C164.503159,614.061340 162.185638,613.916016 160.038147,613.987183 
	C158.045609,614.053284 156.040298,614.117981 154.056198,613.971741 
	C150.315811,613.696167 149.204254,615.419006 149.242508,619.014282 
	C149.391068,632.977173 149.345749,646.942810 149.269714,660.906860 
	C149.251663,664.224915 150.263855,669.012390 145.128998,668.869202 
	C140.220490,668.732361 141.710464,663.990601 141.681091,660.949768 
	C141.552597,647.651550 141.642517,634.351379 141.618713,621.051880 
	C141.606262,614.092651 141.573883,614.104797 134.379166,613.990906 
	C132.222931,613.956726 130.054062,613.959351 127.916473,613.718689 
	C125.650848,613.463562 124.232178,612.185547 124.447418,609.717651 
	C124.645424,607.447571 126.136269,606.667664 128.237717,606.670166 
	C139.375488,606.683716 150.513275,606.683716 161.651047,606.692993 
	C164.092285,606.695068 165.338318,607.907837 165.280151,610.814575 
z"/>
<path fill="#000000" opacity="1.000000" stroke="none" 
	d="
M583.978699,644.999878 
	C583.993164,634.501282 583.982422,624.502502 584.043335,614.504089 
	C584.054443,612.685120 584.234131,610.845276 584.560425,609.055969 
	C584.914062,607.116516 586.398315,606.316650 588.239014,606.385864 
	C589.883057,606.447693 591.134949,607.304138 591.414856,609.028381 
	C591.706848,610.827026 591.982544,612.653870 591.988525,614.469299 
	C592.040039,630.133667 592.030945,645.798279 592.032227,661.462769 
	C592.032288,662.461670 592.024231,663.466309 591.922607,664.458313 
	C591.662476,666.998352 590.765564,669.173706 587.755493,669.040222 
	C585.040833,668.919861 584.130981,666.806274 584.084045,664.493652 
	C583.955566,658.164246 584.001343,651.831360 583.978699,644.999878 
z"/>
<path fill="#000000" opacity="1.000000" stroke="none" 
	d="
M462.666443,641.999878 
	C462.669861,631.692627 462.689789,621.885315 462.666870,612.078125 
	C462.660156,609.203430 463.035492,606.382812 466.621552,606.371338 
	C470.376617,606.359314 470.356964,609.348755 470.353699,612.134094 
	C470.333923,629.089050 470.341919,646.043945 470.346497,662.998901 
	C470.347229,665.728455 470.454163,668.885071 466.796356,668.993164 
	C462.908752,669.108032 462.667175,665.930908 462.669708,662.945618 
	C462.675507,656.130371 462.668396,649.315186 462.666443,641.999878 
z"/>
<path fill="#000000" opacity="1.000000" stroke="none" 
	d="
M695.672302,668.314697 
	C693.548706,666.368774 693.737305,664.161560 693.737793,662.004333 
	C693.741699,645.726562 693.742554,629.448853 693.758667,613.171082 
	C693.759827,612.012146 693.752930,610.830566 693.963257,609.699280 
	C694.382324,607.445740 695.754211,606.097839 698.133972,606.363159 
	C700.252075,606.599121 701.304077,607.980347 701.317383,610.125427 
	C701.336975,613.281067 701.379822,616.436768 701.381897,619.592407 
	C701.391724,634.209106 701.395752,648.825745 701.390076,663.442444 
	C701.388733,667.000671 700.782776,669.972046 695.672302,668.314697 
z"/>
<path fill="#000000" opacity="1.000000" stroke="none" 
	d="
M714.514099,421.773987 
	C709.147156,417.204712 708.804504,411.590393 713.415039,406.440155 
	C715.305054,404.328857 717.650391,402.114960 720.710083,403.461182 
	C724.118408,404.960754 725.081604,408.462555 725.101929,411.827148 
	C725.134583,417.218384 720.679199,421.375732 714.514099,421.773987 
z"/>
</svg>